<svg id="Layer_1" data-name="Layer 1" xmlns="http://www.w3.org/2000/svg" viewBox="0 0 150 40"><defs><style>.cls-1{fill:#1d1d1b;}.cls-2{fill:#aaa49f;}</style></defs><title>paul_iyinolu</title><path class="cls-1" d="M8.06,10.82h6.8c4.9,0,7.17,2.17,7.17,6v.1c0,3.75-2.52,5.77-6.95,5.77H13.16v6H8.06Zm6.57,8.35c1.65,0,2.52-.77,2.52-2.25v-.1c0-1.52-.9-2.15-2.5-2.15h-1.5v4.5Z"/><path class="cls-1" d="M22.71,25.07c0-3.07,2.6-4.27,6.95-4.27h1.25v-.3c0-1.25-.3-2.07-1.72-2.07A1.61,1.61,0,0,0,27.41,20h-4.2c.2-3.15,2.67-4.7,6.25-4.7s5.9,1.47,5.9,4.95v8.47H31V27.17A4.3,4.3,0,0,1,27.13,29C24.78,29,22.71,27.84,22.71,25.07Zm8.2-1v-.8H29.73c-1.8,0-2.6.35-2.6,1.42,0,.75.5,1.22,1.55,1.22A2,2,0,0,0,30.91,24.12Z"/><path class="cls-1" d="M37.81,24.14V15.62h4.47v7.8c0,1.48.57,2.2,1.85,2.2s2.22-.8,2.22-2.47V15.62h4.47V28.69H46.36v-2A4.3,4.3,0,0,1,42.21,29C39.68,29,37.81,27.44,37.81,24.14Z"/><path class="cls-1" d="M53.61,9.87h4.45V28.69H53.61Z"/><path class="cls-2" d="M61.33,10.82h5.17V28.69H61.33Z"/><path class="cls-2" d="M73.48,27.36,68.26,15.62h4.85l2.7,7,2.5-7h4.27l-7,17.45H71.31Z"/><path class="cls-2" d="M84,12.07a2.47,2.47,0,1,1,2.45,2.3A2.34,2.34,0,0,1,84,12.07Zm.22,3.55h4.47V28.69H84.23Z"/><path class="cls-2" d="M91.48,15.62H96v2.1a4.62,4.62,0,0,1,4.3-2.45c2.52,0,4.27,1.57,4.27,4.92v8.5h-4.47v-7.6c0-1.47-.58-2.2-1.87-2.2S96,19.69,96,21.37v7.32H91.48Z"/><path class="cls-2" d="M106.38,22.32v-.2c0-4.2,3.12-6.85,7.17-6.85s7.12,2.57,7.12,6.72v.2c0,4.25-3.12,6.8-7.15,6.8S106.38,26.54,106.38,22.32Zm9.75-.07V22c0-2.2-.87-3.42-2.57-3.42S111,19.79,111,22v.2c0,2.25.88,3.47,2.6,3.47S116.13,24.42,116.13,22.24Z"/><path class="cls-2" d="M122.76,9.87h4.45V28.69h-4.45Z"/><path class="cls-2" d="M129.88,24.14V15.62h4.47v7.8c0,1.48.58,2.2,1.85,2.2s2.22-.8,2.22-2.47V15.62h4.47V28.69h-4.47v-2A4.3,4.3,0,0,1,134.28,29C131.75,29,129.88,27.44,129.88,24.14Z"/></svg>